<svg width="580" height="760" viewBox="0 0 580 760" fill="none" xmlns="http://www.w3.org/2000/svg">
<rect x="200" width="20" height="20" fill="black"/>
<rect x="280" width="20" height="20" fill="black"/>
<rect x="240" width="20" height="20" fill="black"/>
<rect x="320" width="20" height="20" fill="black"/>
<rect x="220" width="20" height="20" fill="black"/>
<rect x="300" width="20" height="20" fill="black"/>
<rect x="260" width="20" height="20" fill="black"/>
<rect x="340" width="20" height="20" fill="black"/>
<rect x="380" y="20" width="20" height="20" fill="black"/>
<rect x="160" y="20" width="20" height="20" fill="black"/>
<rect x="360" width="20" height="20" fill="black"/>
<rect x="400" y="20" width="20" height="20" fill="black"/>
<rect x="180" y="20" width="20" height="20" fill="black"/>
<rect x="200" y="20" width="20" height="20" fill="#BBBBBB"/>
<rect x="160" y="40" width="20" height="20" fill="#BBBBBB"/>
<rect x="140" y="60" width="20" height="20" fill="#BBBBBB"/>
<rect x="120" y="80" width="20" height="20" fill="#BBBBBB"/>
<rect x="100" y="100" width="20" height="20" fill="#BBBBBB"/>
<rect x="80" y="160" width="20" height="20" fill="#BBBBBB"/>
<rect x="80" y="200" width="20" height="20" fill="#BBBBBB"/>
<rect x="80" y="240" width="20" height="20" fill="#BBBBBB"/>
<rect x="200" y="300" width="20" height="20" fill="#BBBBBB"/>
<rect x="220" y="320" width="20" height="20" fill="#BBBBBB"/>
<rect x="240" y="400" width="20" height="20" fill="#BBBBBB"/>
<rect x="240" y="440" width="20" height="20" fill="#BBBBBB"/>
<rect x="240" y="420" width="20" height="20" fill="#BBBBBB"/>
<rect x="240" y="460" width="20" height="20" fill="#BBBBBB"/>
<rect x="200" y="340" width="20" height="20" fill="#BBBBBB"/>
<rect x="220" y="420" width="20" height="20" fill="#BBBBBB"/>
<rect x="220" y="440" width="20" height="20" fill="#BBBBBB"/>
<rect x="60" y="340" width="20" height="20" fill="#BBBBBB"/>
<rect x="60" y="360" width="20" height="20" fill="#BBBBBB"/>
<rect x="80" y="380" width="20" height="20" fill="#BBBBBB"/>
<rect x="100" y="460" width="20" height="20" fill="#BBBBBB"/>
<rect x="120" y="520" width="20" height="20" fill="#BBBBBB"/>
<rect x="80" y="400" width="20" height="20" fill="#BBBBBB"/>
<rect x="100" y="480" width="20" height="20" fill="#BBBBBB"/>
<rect x="120" y="540" width="20" height="20" fill="#BBBBBB"/>
<rect x="140" y="580" width="20" height="20" fill="#BBBBBB"/>
<rect x="80" y="420" width="20" height="20" fill="#BBBBBB"/>
<rect x="100" y="500" width="20" height="20" fill="#BBBBBB"/>
<rect x="120" y="560" width="20" height="20" fill="#BBBBBB"/>
<rect x="140" y="600" width="20" height="20" fill="#BBBBBB"/>
<rect x="160" y="620" width="20" height="20" fill="#BBBBBB"/>
<rect x="100" y="520" width="20" height="20" fill="#BBBBBB"/>
<rect x="120" y="580" width="20" height="20" fill="#BBBBBB"/>
<rect x="140" y="620" width="20" height="20" fill="#BBBBBB"/>
<rect x="160" y="640" width="20" height="20" fill="#BBBBBB"/>
<rect x="180" y="660" width="20" height="20" fill="#BBBBBB"/>
<rect x="200" y="680" width="20" height="20" fill="#BBBBBB"/>
<rect x="360" y="680" width="20" height="20" fill="#BBBBBB"/>
<rect x="380" y="660" width="20" height="20" fill="#BBBBBB"/>
<rect x="400" y="640" width="20" height="20" fill="#BBBBBB"/>
<rect x="420" y="620" width="20" height="20" fill="#BBBBBB"/>
<rect x="440" y="580" width="20" height="20" fill="#BBBBBB"/>
<rect x="460" y="520" width="20" height="20" fill="#BBBBBB"/>
<rect x="500" y="460" width="20" height="20" fill="#BBBBBB"/>
<rect x="500" y="360" width="20" height="20" fill="#BBBBBB"/>
<rect x="340" y="680" width="20" height="20" fill="#BBBBBB"/>
<rect x="360" y="660" width="20" height="20" fill="#BBBBBB"/>
<rect x="380" y="640" width="20" height="20" fill="#BBBBBB"/>
<rect x="400" y="620" width="20" height="20" fill="#BBBBBB"/>
<rect x="420" y="580" width="20" height="20" fill="#BBBBBB"/>
<rect x="440" y="540" width="20" height="20" fill="#BBBBBB"/>
<rect x="460" y="480" width="20" height="20" fill="#BBBBBB"/>
<rect x="480" y="400" width="20" height="20" fill="#BBBBBB"/>
<rect x="340" y="420" width="20" height="20" fill="#BBBBBB"/>
<rect x="320" y="420" width="20" height="20" fill="#BBBBBB"/>
<rect x="360" y="420" width="20" height="20" fill="#BBBBBB"/>
<rect x="540" y="360" width="20" height="20" fill="#BBBBBB"/>
<rect x="480" y="240" width="20" height="20" fill="#BBBBBB"/>
<rect x="480" y="180" width="20" height="20" fill="#BBBBBB"/>
<rect x="460" y="220" width="20" height="20" fill="#BBBBBB"/>
<rect x="440" y="520" width="20" height="20" fill="#BBBBBB"/>
<rect x="460" y="460" width="20" height="20" fill="#BBBBBB"/>
<rect x="480" y="380" width="20" height="20" fill="#BBBBBB"/>
<rect x="340" y="400" width="20" height="20" fill="#BBBBBB"/>
<rect x="320" y="400" width="20" height="20" fill="#BBBBBB"/>
<rect x="320" y="380" width="20" height="20" fill="#BBBBBB"/>
<rect x="300" y="320" width="20" height="20" fill="#BBBBBB"/>
<rect x="340" y="320" width="20" height="20" fill="#BBBBBB"/>
<rect x="360" y="300" width="20" height="20" fill="#BBBBBB"/>
<rect x="440" y="300" width="20" height="20" fill="#BBBBBB"/>
<rect x="460" y="260" width="20" height="20" fill="#BBBBBB"/>
<rect x="320" y="280" width="20" height="20" fill="#BBBBBB"/>
<rect x="360" y="20" width="20" height="20" fill="#BBBBBB"/>
<rect x="400" y="40" width="20" height="20" fill="#BBBBBB"/>
<rect x="440" y="80" width="20" height="20" fill="#BBBBBB"/>
<rect x="460" y="100" width="20" height="20" fill="#BBBBBB"/>
<rect x="360" y="340" width="20" height="20" fill="#BBBBBB"/>
<rect x="460" y="320" width="20" height="20" fill="#BBBBBB"/>
<rect x="480" y="280" width="20" height="20" fill="#BBBBBB"/>
<rect x="320" y="460" width="20" height="20" fill="#BBBBBB"/>
<rect x="540" y="340" width="20" height="20" fill="#BBBBBB"/>
<rect x="480" y="220" width="20" height="20" fill="#BBBBBB"/>
<rect x="480" y="160" width="20" height="20" fill="#BBBBBB"/>
<rect x="460" y="200" width="20" height="20" fill="#BBBBBB"/>
<rect x="420" y="600" width="20" height="20" fill="#BBBBBB"/>
<rect x="440" y="560" width="20" height="20" fill="#BBBBBB"/>
<rect x="460" y="500" width="20" height="20" fill="#BBBBBB"/>
<rect x="480" y="420" width="20" height="20" fill="#BBBBBB"/>
<rect x="340" y="440" width="20" height="20" fill="#BBBBBB"/>
<rect x="320" y="440" width="20" height="20" fill="#BBBBBB"/>
<rect x="540" y="380" width="20" height="20" fill="#BBBBBB"/>
<rect x="480" y="260" width="20" height="20" fill="#BBBBBB"/>
<rect x="480" y="200" width="20" height="20" fill="#BBBBBB"/>
<rect x="460" y="240" width="20" height="20" fill="#BBBBBB"/>
<rect x="460" y="280" width="20" height="20" fill="#BBBBBB"/>
<rect x="440" y="260" width="20" height="20" fill="#BBBBBB"/>
<rect x="420" y="260" width="20" height="20" fill="#BBBBBB"/>
<rect x="400" y="260" width="20" height="20" fill="#BBBBBB"/>
<rect x="220" y="260" width="20" height="20" fill="#BBBBBB"/>
<rect x="200" y="260" width="20" height="20" fill="#BBBBBB"/>
<rect x="180" y="260" width="20" height="20" fill="#BBBBBB"/>
<rect x="500" y="440" width="20" height="20" fill="#BBBBBB"/>
<rect x="500" y="340" width="20" height="20" fill="#BBBBBB"/>
<rect x="220" y="580" width="20" height="20" fill="#BBBBBB"/>
<rect x="160" y="520" width="20" height="20" fill="#BBBBBB"/>
<rect x="320" y="600" width="20" height="20" fill="#BBBBBB"/>
<rect x="320" y="580" width="20" height="20" fill="#BBBBBB"/>
<rect x="340" y="580" width="20" height="20" fill="#BBBBBB"/>
<rect x="340" y="560" width="20" height="20" fill="#BBBBBB"/>
<rect x="360" y="560" width="20" height="20" fill="#BBBBBB"/>
<rect x="400" y="520" width="20" height="20" fill="#BBBBBB"/>
<rect x="60" y="440" width="20" height="20" fill="#BBBBBB"/>
<rect x="60" y="460" width="20" height="20" fill="#BBBBBB"/>
<rect x="80" y="280" width="20" height="20" fill="#BBBBBB"/>
<rect x="80" y="180" width="20" height="20" fill="#BBBBBB"/>
<rect x="80" y="220" width="20" height="20" fill="#BBBBBB"/>
<rect x="100" y="220" width="20" height="20" fill="#BBBBBB"/>
<rect x="80" y="260" width="20" height="20" fill="#BBBBBB"/>
<rect x="420" y="40" width="20" height="20" fill="black"/>
<rect x="140" y="40" width="20" height="20" fill="black"/>
<rect x="120" y="60" width="20" height="20" fill="black"/>
<rect x="100" y="80" width="20" height="20" fill="black"/>
<rect x="80" y="100" width="20" height="20" fill="black"/>
<rect x="60" y="160" width="20" height="20" fill="black"/>
<rect x="60" y="140" width="20" height="20" fill="black"/>
<rect x="60" y="220" width="20" height="20" fill="black"/>
<rect x="60" y="280" width="20" height="20" fill="black"/>
<rect x="80" y="120" width="20" height="20" fill="black"/>
<rect x="60" y="180" width="20" height="20" fill="black"/>
<rect x="60" y="240" width="20" height="20" fill="black"/>
<rect x="60" y="300" width="20" height="20" fill="black"/>
<rect x="40" y="340" width="20" height="20" fill="black"/>
<rect x="40" y="300" width="20" height="20" fill="black"/>
<rect x="20" y="340" width="20" height="20" fill="black"/>
<rect x="80" y="440" width="20" height="20" fill="black"/>
<rect x="20" y="360" width="20" height="20" fill="black"/>
<rect x="80" y="460" width="20" height="20" fill="black"/>
<rect x="20" y="400" width="20" height="20" fill="black"/>
<rect x="80" y="500" width="20" height="20" fill="black"/>
<rect x="80" y="540" width="20" height="20" fill="black"/>
<rect x="100" y="540" width="20" height="20" fill="black"/>
<rect x="100" y="580" width="20" height="20" fill="black"/>
<rect x="120" y="600" width="20" height="20" fill="black"/>
<rect x="140" y="640" width="20" height="20" fill="black"/>
<rect x="160" y="660" width="20" height="20" fill="black"/>
<rect x="160" y="680" width="20" height="20" fill="black"/>
<rect x="180" y="680" width="20" height="20" fill="black"/>
<rect x="180" y="700" width="20" height="20" fill="black"/>
<rect x="200" y="700" width="20" height="20" fill="black"/>
<rect x="200" y="720" width="20" height="20" fill="black"/>
<rect x="40" y="440" width="20" height="20" fill="black"/>
<rect x="60" y="400" width="20" height="20" fill="black"/>
<rect x="20" y="380" width="20" height="20" fill="black"/>
<rect x="80" y="480" width="20" height="20" fill="black"/>
<rect x="60" y="380" width="20" height="20" fill="black"/>
<rect x="20" y="420" width="20" height="20" fill="black"/>
<rect x="80" y="520" width="20" height="20" fill="black"/>
<rect x="80" y="560" width="20" height="20" fill="black"/>
<rect x="100" y="560" width="20" height="20" fill="black"/>
<rect x="100" y="600" width="20" height="20" fill="black"/>
<rect x="120" y="640" width="20" height="20" fill="black"/>
<rect x="140" y="660" width="20" height="20" fill="black"/>
<rect x="120" y="620" width="20" height="20" fill="black"/>
<rect x="40" y="460" width="20" height="20" fill="black"/>
<rect x="60" y="420" width="20" height="20" fill="black"/>
<rect x="60" y="480" width="20" height="20" fill="black"/>
<rect x="20" y="300" width="20" height="20" fill="black"/>
<rect y="340" width="20" height="20" fill="black"/>
<rect y="360" width="20" height="20" fill="black"/>
<rect y="380" width="20" height="20" fill="black"/>
<rect y="320" width="20" height="20" fill="black"/>
<rect x="80" y="140" width="20" height="20" fill="black"/>
<rect x="60" y="200" width="20" height="20" fill="black"/>
<rect x="60" y="260" width="20" height="20" fill="black"/>
<rect x="60" y="320" width="20" height="20" fill="black"/>
<rect x="440" y="60" width="20" height="20" fill="black"/>
<rect x="460" y="80" width="20" height="20" fill="black"/>
<rect x="480" y="100" width="20" height="20" fill="black"/>
<rect x="480" y="120" width="20" height="20" fill="black"/>
<rect x="480" y="140" width="20" height="20" fill="black"/>
<rect x="500" y="140" width="20" height="20" fill="black"/>
<rect x="500" y="220" width="20" height="20" fill="black"/>
<rect x="500" y="180" width="20" height="20" fill="black"/>
<rect x="500" y="260" width="20" height="20" fill="black"/>
<rect x="500" y="280" width="20" height="20" fill="black"/>
<rect x="500" y="160" width="20" height="20" fill="black"/>
<rect x="500" y="240" width="20" height="20" fill="black"/>
<rect x="500" y="200" width="20" height="20" fill="black"/>
<rect x="500" y="300" width="20" height="20" fill="black"/>
<rect x="460" y="260" width="20" height="20" fill="black"/>
<rect x="480" y="320" width="20" height="20" fill="black"/>
<rect x="440" y="240" width="20" height="20" fill="black"/>
<rect x="400" y="240" width="20" height="20" fill="black"/>
<rect x="420" y="240" width="20" height="20" fill="black"/>
<rect x="380" y="240" width="20" height="20" fill="black"/>
<rect x="360" y="240" width="20" height="20" fill="black"/>
<rect x="340" y="260" width="20" height="20" fill="black"/>
<rect x="260" y="300" width="20" height="20" fill="black"/>
<rect x="240" y="260" width="20" height="20" fill="black"/>
<rect x="220" y="240" width="20" height="20" fill="black"/>
<rect x="260" y="320" width="20" height="20" fill="black"/>
<rect x="320" y="300" width="20" height="20" fill="black"/>
<rect x="240" y="300" width="20" height="20" fill="black"/>
<rect x="220" y="280" width="20" height="20" fill="black"/>
<rect x="320" y="340" width="20" height="20" fill="black"/>
<rect x="240" y="340" width="20" height="20" fill="black"/>
<rect x="480" y="300" width="20" height="20" fill="black"/>
<rect x="500" y="320" width="20" height="20" fill="black"/>
<rect x="460" y="300" width="20" height="20" fill="black"/>
<rect x="480" y="340" width="20" height="20" fill="black"/>
<rect x="480" y="360" width="20" height="20" fill="black"/>
<rect x="460" y="380" width="20" height="20" fill="black"/>
<rect x="440" y="400" width="20" height="20" fill="black"/>
<rect x="420" y="420" width="20" height="20" fill="black"/>
<rect x="400" y="420" width="20" height="20" fill="black"/>
<rect x="380" y="420" width="20" height="20" fill="black"/>
<rect x="360" y="400" width="20" height="20" fill="black"/>
<rect x="340" y="380" width="20" height="20" fill="black"/>
<rect x="440" y="280" width="20" height="20" fill="black"/>
<rect x="440" y="340" width="20" height="20" fill="black"/>
<rect x="400" y="280" width="20" height="20" fill="black"/>
<rect x="400" y="320" width="20" height="20" fill="black"/>
<rect x="400" y="340" width="20" height="20" fill="black"/>
<rect x="420" y="280" width="20" height="20" fill="black"/>
<rect x="420" y="320" width="20" height="20" fill="black"/>
<rect x="380" y="280" width="20" height="20" fill="black"/>
<rect x="300" y="300" width="20" height="20" fill="black"/>
<rect x="380" y="320" width="20" height="20" fill="black"/>
<rect x="380" y="340" width="20" height="20" fill="black"/>
<rect x="360" y="280" width="20" height="20" fill="black"/>
<rect x="280" y="300" width="20" height="20" fill="black"/>
<rect x="360" y="320" width="20" height="20" fill="black"/>
<rect x="340" y="300" width="20" height="20" fill="black"/>
<rect x="320" y="320" width="20" height="20" fill="black"/>
<rect x="240" y="320" width="20" height="20" fill="black"/>
<rect x="220" y="300" width="20" height="20" fill="black"/>
<rect x="200" y="320" width="20" height="20" fill="black"/>
<rect x="200" y="280" width="20" height="20" fill="black"/>
<rect x="200" y="240" width="20" height="20" fill="black"/>
<rect x="180" y="320" width="20" height="20" fill="black"/>
<rect x="180" y="280" width="20" height="20" fill="black"/>
<rect x="180" y="240" width="20" height="20" fill="black"/>
<rect x="180" y="340" width="20" height="20" fill="black"/>
<rect x="160" y="320" width="20" height="20" fill="black"/>
<rect x="160" y="280" width="20" height="20" fill="black"/>
<rect x="160" y="240" width="20" height="20" fill="black"/>
<rect x="160" y="340" width="20" height="20" fill="black"/>
<rect x="120" y="340" width="20" height="20" fill="black"/>
<rect x="140" y="320" width="20" height="20" fill="black"/>
<rect x="140" y="280" width="20" height="20" fill="black"/>
<rect x="120" y="280" width="20" height="20" fill="black"/>
<rect x="140" y="240" width="20" height="20" fill="black"/>
<rect x="120" y="240" width="20" height="20" fill="black"/>
<rect x="100" y="320" width="20" height="20" fill="black"/>
<rect x="120" y="300" width="20" height="20" fill="black"/>
<rect x="100" y="260" width="20" height="20" fill="black"/>
<rect x="100" y="300" width="20" height="20" fill="black"/>
<rect x="80" y="300" width="20" height="20" fill="black"/>
<rect x="80" y="320" width="20" height="20" fill="black"/>
<rect x="80" y="340" width="20" height="20" fill="black"/>
<rect x="80" y="360" width="20" height="20" fill="black"/>
<rect x="320" y="360" width="20" height="20" fill="black"/>
<rect x="240" y="360" width="20" height="20" fill="black"/>
<rect x="240" y="380" width="20" height="20" fill="black"/>
<rect x="220" y="400" width="20" height="20" fill="black"/>
<rect x="200" y="420" width="20" height="20" fill="black"/>
<rect x="220" y="460" width="20" height="20" fill="black"/>
<rect x="220" y="480" width="20" height="20" fill="black"/>
<rect x="220" y="540" width="20" height="20" fill="black"/>
<rect x="160" y="540" width="20" height="20" fill="black"/>
<rect x="240" y="480" width="20" height="20" fill="black"/>
<rect x="240" y="540" width="20" height="20" fill="black"/>
<rect x="240" y="600" width="20" height="20" fill="black"/>
<rect x="240" y="580" width="20" height="20" fill="#BBBBBB"/>
<rect x="180" y="540" width="20" height="20" fill="black"/>
<rect x="260" y="480" width="20" height="20" fill="black"/>
<rect x="260" y="540" width="20" height="20" fill="black"/>
<rect x="260" y="600" width="20" height="20" fill="black"/>
<rect x="260" y="580" width="20" height="20" fill="#BBBBBB"/>
<rect x="200" y="540" width="20" height="20" fill="black"/>
<rect x="200" y="560" width="20" height="20" fill="black"/>
<rect x="260" y="500" width="20" height="20" fill="black"/>
<rect x="280" y="480" width="20" height="20" fill="black"/>
<rect x="280" y="540" width="20" height="20" fill="black"/>
<rect x="280" y="600" width="20" height="20" fill="black"/>
<rect x="280" y="580" width="20" height="20" fill="#BBBBBB"/>
<rect x="280" y="500" width="20" height="20" fill="black"/>
<rect x="300" y="480" width="20" height="20" fill="black"/>
<rect x="300" y="540" width="20" height="20" fill="black"/>
<rect x="300" y="600" width="20" height="20" fill="black"/>
<rect x="300" y="580" width="20" height="20" fill="#BBBBBB"/>
<rect x="360" y="540" width="20" height="20" fill="black"/>
<rect x="300" y="500" width="20" height="20" fill="black"/>
<rect x="320" y="480" width="20" height="20" fill="black"/>
<rect x="320" y="540" width="20" height="20" fill="black"/>
<rect x="380" y="540" width="20" height="20" fill="black"/>
<rect x="340" y="480" width="20" height="20" fill="black"/>
<rect x="340" y="540" width="20" height="20" fill="black"/>
<rect x="400" y="540" width="20" height="20" fill="black"/>
<rect x="340" y="460" width="20" height="20" fill="black"/>
<rect x="180" y="420" width="20" height="20" fill="black"/>
<rect x="160" y="420" width="20" height="20" fill="black"/>
<rect x="140" y="420" width="20" height="20" fill="black"/>
<rect x="120" y="400" width="20" height="20" fill="black"/>
<rect x="100" y="380" width="20" height="20" fill="black"/>
<rect x="520" y="300" width="20" height="20" fill="black"/>
<rect x="540" y="300" width="20" height="20" fill="black"/>
<rect x="540" y="320" width="20" height="20" fill="black"/>
<rect x="520" y="340" width="20" height="20" fill="black"/>
<rect x="540" y="400" width="20" height="20" fill="black"/>
<rect x="520" y="440" width="20" height="20" fill="black"/>
<rect x="500" y="380" width="20" height="20" fill="black"/>
<rect x="480" y="440" width="20" height="20" fill="black"/>
<rect x="480" y="500" width="20" height="20" fill="black"/>
<rect x="460" y="540" width="20" height="20" fill="black"/>
<rect x="440" y="600" width="20" height="20" fill="black"/>
<rect x="380" y="680" width="20" height="20" fill="black"/>
<rect x="360" y="720" width="20" height="20" fill="black"/>
<rect x="320" y="720" width="20" height="20" fill="black"/>
<rect x="280" y="720" width="20" height="20" fill="black"/>
<rect x="240" y="720" width="20" height="20" fill="black"/>
<rect x="340" y="720" width="20" height="20" fill="black"/>
<rect x="300" y="720" width="20" height="20" fill="black"/>
<rect x="260" y="720" width="20" height="20" fill="black"/>
<rect x="220" y="720" width="20" height="20" fill="black"/>
<rect x="320" y="740" width="20" height="20" fill="black"/>
<rect x="280" y="740" width="20" height="20" fill="black"/>
<rect x="240" y="740" width="20" height="20" fill="black"/>
<rect x="300" y="740" width="20" height="20" fill="black"/>
<rect x="260" y="740" width="20" height="20" fill="black"/>
<rect x="520" y="360" width="20" height="20" fill="black"/>
<rect x="540" y="420" width="20" height="20" fill="black"/>
<rect x="520" y="460" width="20" height="20" fill="black"/>
<rect x="500" y="400" width="20" height="20" fill="black"/>
<rect x="480" y="460" width="20" height="20" fill="black"/>
<rect x="480" y="520" width="20" height="20" fill="black"/>
<rect x="460" y="560" width="20" height="20" fill="black"/>
<rect x="440" y="620" width="20" height="20" fill="black"/>
<rect x="380" y="700" width="20" height="20" fill="black"/>
<rect x="360" y="700" width="20" height="20" fill="black"/>
<rect x="320" y="700" width="20" height="20" fill="#BBBBBB"/>
<rect x="280" y="700" width="20" height="20" fill="#BBBBBB"/>
<rect x="240" y="700" width="20" height="20" fill="#BBBBBB"/>
<rect x="340" y="700" width="20" height="20" fill="black"/>
<rect x="300" y="700" width="20" height="20" fill="#BBBBBB"/>
<rect x="260" y="700" width="20" height="20" fill="#BBBBBB"/>
<rect x="220" y="700" width="20" height="20" fill="black"/>
<rect x="500" y="420" width="20" height="20" fill="black"/>
<rect x="480" y="480" width="20" height="20" fill="black"/>
<rect x="480" y="540" width="20" height="20" fill="black"/>
<rect x="480" y="560" width="20" height="20" fill="black"/>
<rect x="460" y="580" width="20" height="20" fill="black"/>
<rect x="420" y="640" width="20" height="20" fill="black"/>
<rect x="460" y="600" width="20" height="20" fill="black"/>
<rect x="400" y="660" width="20" height="20" fill="black"/>
<rect x="420" y="660" width="20" height="20" fill="black"/>
<rect x="440" y="640" width="20" height="20" fill="black"/>
<rect x="400" y="680" width="20" height="20" fill="black"/>
<rect x="500" y="480" width="20" height="20" fill="black"/>
<rect x="560" y="320" width="20" height="20" fill="black"/>
<rect x="560" y="340" width="20" height="20" fill="black"/>
<rect x="560" y="360" width="20" height="20" fill="black"/>
<rect x="560" y="380" width="20" height="20" fill="black"/>
</svg>
